<svg width="19" height="18" viewBox="0 0 19 18" fill="none" xmlns="http://www.w3.org/2000/svg">
<path d="M12.9639 0C13.0058 0 13.0477 0 13.092 0C13.1947 1.2694 12.7102 2.21789 12.1213 2.90476C11.5435 3.58688 10.7523 4.24845 9.47267 4.14807C9.38731 2.89685 9.87262 2.01871 10.4607 1.33342C11.0061 0.69477 12.0059 0.126466 12.9639 0Z" fill="black"/>
<path d="M16.8377 13.2125C16.8377 13.2251 16.8377 13.2362 16.8377 13.2481C16.4781 14.3372 15.9651 15.2707 15.3391 16.137C14.7676 16.9235 14.0673 17.9818 12.8169 17.9818C11.7364 17.9818 11.0187 17.2871 9.91135 17.2681C8.73996 17.2491 8.09578 17.849 7.02477 18C6.90226 18 6.77975 18 6.6596 18C5.87315 17.8862 5.23845 17.2633 4.77606 16.7021C3.4126 15.0439 2.35899 12.9019 2.16296 10.1607C2.16296 9.89198 2.16296 9.62403 2.16296 9.35529C2.24596 7.39349 3.19919 5.79845 4.46622 5.02543C5.1349 4.61441 6.05415 4.26426 7.07773 4.42076C7.51641 4.48874 7.96457 4.63892 8.3574 4.78751C8.72969 4.93058 9.19524 5.1843 9.63629 5.17086C9.93506 5.16217 10.2323 5.00646 10.5334 4.89659C11.4155 4.57805 12.2802 4.21288 13.42 4.3844C14.7898 4.59149 15.762 5.20011 16.3627 6.13911C15.2039 6.87657 14.2878 7.98788 14.4443 9.88566C14.5835 11.6095 15.5857 12.6181 16.8377 13.2125Z" fill="black"/>
</svg>
