<svg width="19" height="18" viewBox="0 0 19 18" fill="none" xmlns="http://www.w3.org/2000/svg">
<g clip-path="url(#clip0_93_9169)">
<path d="M8.015 17.91C3.74 17.145 0.5 13.455 0.5 9C0.5 4.05 4.55 0 9.5 0C14.45 0 18.5 4.05 18.5 9C18.5 13.455 15.26 17.145 10.985 17.91L10.49 17.505H8.51L8.015 17.91Z" fill="url(#paint0_linear_93_9169)"/>
<path d="M13.0101 11.52L13.4151 9H11.0301V7.245C11.0301 6.525 11.3001 5.985 12.3801 5.985H13.5501V3.69C12.9201 3.6 12.2001 3.51 11.5701 3.51C9.50006 3.51 8.06006 4.77 8.06006 7.02V9H5.81006V11.52H8.06006V17.865C8.55506 17.955 9.05006 18 9.54506 18C10.0401 18 10.5351 17.955 11.0301 17.865V11.52H13.0101Z" fill="white"/>
</g>
<defs>
<linearGradient id="paint0_linear_93_9169" x1="9.50045" y1="17.374" x2="9.50045" y2="-0.0033155" gradientUnits="userSpaceOnUse">
<stop stop-color="#0062E0"/>
<stop offset="1" stop-color="#19AFFF"/>
</linearGradient>
<clipPath id="clip0_93_9169">
<rect width="18" height="18" fill="white" transform="translate(0.5)"/>
</clipPath>
</defs>
</svg>
