<svg width="124" height="35" viewBox="0 0 124 35" fill="none" xmlns="http://www.w3.org/2000/svg">
<g clip-path="url(#clip0_1021_2587)">
<path d="M26.858 29.3147C27.6226 28.7683 28.1737 28.0727 28.5124 27.2165C28.85 26.3665 29.0163 25.4928 29.0163 24.5955C29.0163 24.3753 29.0101 24.1561 28.9927 23.9472C28.9752 23.7393 28.9516 23.5191 28.9219 23.2989C28.8685 23.0015 28.7915 22.7103 28.7022 22.4191L8.00548 11.5235C6.36336 10.656 5.7291 8.61645 6.59429 6.96997L6.94426 6.298C7.80945 4.65153 9.84362 4.01557 11.4857 4.88306L17.58 8.96221C18.946 9.68151 20.6354 9.11039 21.2891 7.70883L22.8173 4.42822L15.4761 0.649556C13.5651 -0.335244 11.2651 -0.165451 9.51725 1.08896L6.92784 2.94742C6.41776 3.20263 3.32751 5.68572 2.82974 5.99443C2.33198 6.298 1.87527 6.67258 1.46063 7.12433C1.20611 7.41555 0.980315 7.72426 0.790446 8.06385C0.600577 8.40241 0.440471 8.74714 0.310128 9.09804C0.215707 9.38926 0.143864 9.68666 0.0966536 9.9892C0.0432849 10.2928 0.0196796 10.5716 0.0196796 10.833V11.0707C0.0843377 12.5454 0.647788 13.9418 1.70387 15.2559C1.81061 15.3948 1.94608 15.51 2.10208 15.5913L19.9231 24.9752C21.5652 25.8427 22.1995 27.8823 21.3343 29.5288L20.9843 30.2007C20.1191 31.8472 18.085 32.4832 16.4429 31.6157L1.98714 23.7435C1.64948 24.5636 1.28719 25.3601 0.908473 26.1329C0.738104 26.4735 0.454839 26.81 0.265996 27.1414C-0.366217 28.2497 0.17568 29.6574 1.3929 30.033L13.5035 34.8881C13.8524 35.029 16.4357 35.0517 17.8818 34.9601C18.4257 34.9251 18.9502 34.7419 19.3997 34.4332L26.859 29.3147H26.858Z" fill="#5C7DD2"/>
<path d="M25.375 12.9652C27.3861 12.9652 29.0164 11.3306 29.0164 9.31414C29.0164 7.29772 27.3861 5.66308 25.375 5.66308C23.3639 5.66308 21.7336 7.29772 21.7336 9.31414C21.7336 11.3306 23.3639 12.9652 25.375 12.9652Z" fill="url(#paint0_linear_1021_2587)"/>
<path d="M0.957794 21.0052C0.863373 20.9547 0.746372 20.9908 0.696083 21.0854C0.645793 21.1801 0.681714 21.2974 0.776136 21.3478L16.4973 29.7315C16.526 29.7469 16.5568 29.7541 16.5876 29.7541C16.6564 29.7541 16.7241 29.7171 16.758 29.6512C16.8083 29.5566 16.7724 29.4392 16.6779 29.3888L0.957794 21.0052Z" fill="#5C7DD2"/>
<path d="M1.05011 19.368C0.999816 19.4626 1.03471 19.5799 1.12811 19.6304L17.814 28.4081C17.8438 28.4236 17.8746 28.4318 17.9054 28.4318C17.9741 28.4318 18.0408 28.3948 18.0757 28.3299C18.126 28.2353 18.0911 28.1179 17.9977 28.0675L1.31182 19.2897C1.2174 19.2383 1.10039 19.2743 1.05011 19.368Z" fill="#5C7DD2"/>
<path d="M19.1319 27.0879C19.1606 27.1033 19.1925 27.1105 19.2232 27.1105C19.292 27.1105 19.3587 27.0735 19.3936 27.0086C19.4439 26.914 19.409 26.7966 19.3146 26.7462L1.61672 17.245C1.52332 17.1946 1.4053 17.2296 1.35501 17.3243C1.30472 17.4189 1.33961 17.5362 1.43403 17.5867L19.1319 27.0889V27.0879Z" fill="#5C7DD2"/>
<path d="M7.73039 9.07129C7.65445 9.03013 7.56003 9.05997 7.52 9.13612C7.47997 9.21227 7.50871 9.30694 7.58466 9.34708L20.2679 16.11C20.2915 16.1223 20.3162 16.1285 20.3408 16.1285C20.3962 16.1285 20.4506 16.0987 20.4783 16.0452C20.5183 15.969 20.4896 15.8743 20.4137 15.8342L7.73039 9.07129Z" fill="#5C7DD2"/>
<path d="M8.30514 7.75206C8.26409 7.8282 8.29282 7.92288 8.36774 7.96404L22.8224 15.793C22.846 15.8054 22.8717 15.8116 22.8963 15.8116C22.9518 15.8116 23.0051 15.7817 23.0339 15.7292C23.0749 15.6531 23.0462 15.5584 22.9713 15.5173L8.51656 7.68928C8.44061 7.64812 8.34619 7.67693 8.30514 7.75206Z" fill="#5C7DD2"/>
<path d="M23.6989 14.1661C23.7225 14.1785 23.7471 14.1846 23.7728 14.1846C23.8282 14.1846 23.8826 14.1548 23.9103 14.1023C23.9514 14.0262 23.9226 13.9315 23.8467 13.8903L9.56853 6.22494C9.49259 6.18481 9.39816 6.2126 9.35711 6.28875C9.31606 6.3649 9.34479 6.45957 9.42074 6.50073L23.6979 14.1661H23.6989Z" fill="#5C7DD2"/>
<path d="M38.3168 28.3742H36.3915V30.4848H38.5447V30.7729H36.0518V25.9456H38.4297V26.2338H36.3904V28.085H38.3158V28.3732L38.3168 28.3742Z" fill="#5C7DD2"/>
<path d="M42.5699 28.118V28.4174H40.8713V28.118H42.5699Z" fill="#5C7DD2"/>
<path d="M45.2261 25.9467H45.5648V30.4878H47.7108V30.7739H45.2251V25.9467H45.2261Z" fill="#5C7DD2"/>
<path d="M52.5478 28.3742H50.6224V30.4848H52.7756V30.7729H50.2827V25.9456H52.6607V26.2338H50.6214V28.085H52.5468V28.3732L52.5478 28.3742Z" fill="#5C7DD2"/>
<path d="M56.0454 29.0853L55.4512 30.7739H55.1033L56.8439 25.9467H57.1744L58.9089 30.7739H58.5568L57.9513 29.0853H56.0465H56.0454ZM57.8466 28.7981L57.2606 27.1846C57.1426 26.8502 57.0789 26.6083 57.0091 26.3346H56.9917C56.924 26.6155 56.847 26.8666 56.7413 27.1712L56.1522 28.7992H57.8466V28.7981Z" fill="#5C7DD2"/>
<path d="M61.5066 26.0125C61.8011 25.9467 62.2137 25.9086 62.5473 25.9086C63.1744 25.9086 63.5685 26.0444 63.8415 26.3151C64.0488 26.5157 64.1771 26.8378 64.1771 27.1743C64.1771 27.8226 63.7932 28.2414 63.2339 28.4308V28.4452C63.6218 28.5707 63.8641 28.936 63.979 29.4711C64.1432 30.2254 64.2376 30.5835 64.3382 30.7729H63.9831C63.9061 30.6329 63.8045 30.2069 63.6762 29.5987C63.5284 28.9021 63.2318 28.5872 62.5976 28.5604H61.8453V30.7739H61.5066V26.0125ZM61.8463 28.2847H62.6109C63.354 28.2847 63.8363 27.8669 63.8363 27.2319C63.8363 26.491 63.2934 26.1895 62.5401 26.1895C62.2137 26.1895 61.9705 26.2235 61.8473 26.2554V28.2836L61.8463 28.2847Z" fill="#5C7DD2"/>
<path d="M66.9717 30.7739V25.9467H67.295L69.1721 28.7992C69.5631 29.4022 69.8423 29.8498 70.0763 30.3191L70.0907 30.3088C70.0404 29.6605 70.0352 29.1089 70.0352 28.3495V25.9467H70.3657V30.7739H70.0476L68.2104 27.9646C67.8512 27.411 67.5228 26.9026 67.2786 26.4036L67.2591 26.4138C67.2981 27.0086 67.3032 27.5273 67.3032 28.332V30.7739H66.9727H66.9717Z" fill="#5C7DD2"/>
<path d="M73.7269 25.9467V30.7739H73.3882V25.9467H73.7269Z" fill="#5C7DD2"/>
<path d="M76.7524 30.7739V25.9467H77.0757L78.9529 28.7992C79.3439 29.4022 79.6231 29.8498 79.856 30.3191L79.8704 30.3088C79.8201 29.6605 79.815 29.1089 79.815 28.3495V25.9467H80.1455V30.7739H79.8273L77.9902 27.9646C77.631 27.411 77.3025 26.9026 77.0583 26.4036L77.0388 26.4138C77.0778 27.0086 77.0829 27.5273 77.0829 28.332V30.7739H76.7524Z" fill="#5C7DD2"/>
<path d="M86.6206 30.5599C86.3774 30.6587 85.8755 30.8213 85.2187 30.8213C84.5618 30.8213 83.9994 30.6587 83.515 30.1894C83.1168 29.8015 82.853 29.1532 82.853 28.3762C82.853 27.0385 83.7295 25.8983 85.3655 25.8983C85.8817 25.8983 86.2994 26.0238 86.4872 26.1134L86.3764 26.3964C86.126 26.278 85.8068 26.1885 85.348 26.1885C84.0189 26.1885 83.2071 27.0519 83.2071 28.3587C83.2071 29.6656 84.0035 30.5321 85.2751 30.5321C85.7801 30.5321 86.1034 30.457 86.282 30.3633V28.6644H85.1664V28.3834H86.6217V30.5609L86.6206 30.5599Z" fill="#5C7DD2"/>
<path d="M92.7528 30.2398C93.0238 30.4261 93.4014 30.5589 93.8048 30.5589C94.5242 30.5589 94.9655 30.1493 94.9655 29.5545C94.9655 29.0132 94.6854 28.6952 93.9905 28.4267C93.2157 28.1509 92.7507 27.7516 92.7507 27.094C92.7507 26.3871 93.3327 25.8715 94.1506 25.8715C94.6022 25.8715 94.945 25.9878 95.1103 26.099L94.9779 26.385C94.8475 26.2934 94.5407 26.1556 94.1281 26.1556C93.3511 26.1556 93.0874 26.6546 93.0874 27.0344C93.0874 27.5695 93.3963 27.8442 94.086 28.1138C94.8804 28.4359 95.3022 28.7981 95.3022 29.5216C95.3022 30.245 94.8024 30.848 93.775 30.848C93.3583 30.848 92.8749 30.7122 92.6245 30.5239L92.7528 30.2388V30.2398Z" fill="#5C7DD2"/>
<path d="M99.1345 30.7739V28.686L97.6042 25.9467H97.986L98.7773 27.3863C98.9826 27.764 99.156 28.0778 99.3223 28.4267H99.3367C99.4845 28.0994 99.6795 27.7619 99.894 27.3811L100.717 25.9467H101.099L99.4742 28.6932V30.7739H99.1345Z" fill="#5C7DD2"/>
<path d="M103.355 30.2398C103.626 30.4261 104.003 30.5589 104.407 30.5589C105.126 30.5589 105.567 30.1493 105.567 29.5545C105.567 29.0132 105.287 28.6952 104.592 28.4267C103.818 28.1509 103.353 27.7516 103.353 27.094C103.353 26.3871 103.935 25.8715 104.753 25.8715C105.204 25.8715 105.547 25.9878 105.711 26.099L105.579 26.385C105.448 26.2934 105.141 26.1556 104.729 26.1556C103.952 26.1556 103.688 26.6546 103.688 27.0344C103.688 27.5695 103.997 27.8442 104.687 28.1138C105.481 28.4359 105.903 28.7981 105.903 29.5216C105.903 30.245 105.403 30.848 104.376 30.848C103.959 30.848 103.476 30.7122 103.225 30.5239L103.354 30.2388L103.355 30.2398Z" fill="#5C7DD2"/>
<path d="M109.591 26.2327H108.021V25.9467H111.5V26.2327H109.93V30.7739H109.591V26.2327Z" fill="#5C7DD2"/>
<path d="M116.122 28.3742H114.197V30.4848H116.35V30.7729H113.857V25.9456H116.235V26.2338H114.196V28.085H116.121V28.3732L116.122 28.3742Z" fill="#5C7DD2"/>
<path d="M123.103 28.4853C123.057 27.7619 123 26.8738 123.005 26.3459H122.985C122.812 26.8707 122.614 27.4305 122.337 28.1488L121.326 30.7739H121.088L120.14 28.2085C119.865 27.4563 119.662 26.8779 119.517 26.347H119.5C119.487 26.915 119.454 27.7537 119.396 28.5543L119.244 30.7739H118.911L119.263 25.9467H119.652L120.687 28.7292C120.914 29.3435 121.083 29.8282 121.22 30.2944H121.236C121.359 29.8488 121.531 29.3816 121.777 28.7354L122.851 25.9477H123.258L123.581 30.775H123.246L123.105 28.4863L123.103 28.4853Z" fill="#5C7DD2"/>
<path d="M45.6961 16.2396C45.6961 17.6803 45.148 18.8658 44.0519 19.7981C42.9558 20.7304 41.5313 21.1966 39.7773 21.1966C38.4472 21.1966 37.2679 21.0597 36.2396 20.787L36.5567 17.9448C37.5994 18.3842 38.7109 18.6044 39.8902 18.6044C40.6456 18.6044 41.2624 18.4418 41.7386 18.1156C42.2148 17.7894 42.4529 17.2852 42.4529 16.6039C42.4529 16.074 42.2292 15.6376 41.7837 15.296C41.3373 14.9554 40.8005 14.6703 40.1734 14.4429C39.5464 14.2155 38.9183 13.9541 38.2912 13.6588C37.6641 13.3634 37.1273 12.9086 36.6809 12.2943C36.2344 11.6799 36.0117 10.904 36.0117 9.96347C36.0117 8.56911 36.5218 7.45054 37.542 6.6098C38.5621 5.76804 39.9795 5.34819 41.794 5.34819C42.7013 5.34819 43.6229 5.44698 44.561 5.64353L44.289 8.2357C43.3971 7.94757 42.5206 7.8035 41.6585 7.8035C40.7964 7.8035 40.1991 7.97021 39.7763 8.30362C39.3524 8.63703 39.141 9.08467 39.141 9.6455C39.141 10.1456 39.3678 10.5624 39.8214 10.8958C40.2751 11.2292 40.819 11.5173 41.4543 11.7602C42.0896 12.003 42.728 12.2757 43.3704 12.5783C44.0129 12.8819 44.561 13.3439 45.0146 13.9654C45.4682 14.587 45.6951 15.3454 45.6951 16.2396H45.6961Z" fill="#5C7DD2"/>
<path d="M55.5374 20.6285C54.6301 20.9774 53.572 21.1513 52.363 21.1513C50.7455 21.1513 49.4944 20.7047 48.6097 19.8094C47.7251 18.9152 47.2827 17.5352 47.2827 15.6716C47.2827 13.808 47.7702 12.322 48.7452 11.1695C49.7202 10.018 51.1448 9.44174 53.0198 9.44174C53.9271 9.44174 54.7512 9.57037 55.4912 9.82866L55.0376 12.3303C54.3263 12.0421 53.6233 11.8981 52.9285 11.8981C52.0818 11.8981 51.4352 12.2089 50.9898 12.8304C50.5433 13.4519 50.3206 14.3009 50.3206 15.3773C50.3206 17.5599 51.1971 18.6517 52.9511 18.6517C53.7372 18.6517 54.47 18.5005 55.1505 18.1969L55.5364 20.6296L55.5374 20.6285Z" fill="#5C7DD2"/>
<path d="M67.5116 20.9465H64.6317V13.7164C64.6317 13.0949 64.526 12.6287 64.3146 12.3179C64.1032 12.0072 63.7398 11.8518 63.2256 11.8518C62.5 11.8518 61.8843 12.2119 61.3772 12.9323C60.8702 13.6526 60.6178 14.5129 60.6178 15.5131V20.9475H57.7153V4.34795H60.6178V9.21432C60.6178 10.1549 60.55 10.9195 60.4135 11.5112H60.4587C61.1997 10.1168 62.4313 9.41911 64.1555 9.41911C66.3929 9.41911 67.5116 10.6169 67.5116 13.0115V20.9465Z" fill="#5C7DD2"/>
<path d="M80.8906 15.0799C80.8906 16.853 80.3497 18.3121 79.269 19.4564C78.1883 20.6007 76.8089 21.1729 75.1309 21.1729C73.4529 21.1729 72.171 20.7109 71.2422 19.7857C70.3123 18.8617 69.8474 17.4292 69.8474 15.4884C69.8474 13.7144 70.3801 12.2593 71.4464 11.1232C72.5128 9.98611 73.8993 9.41808 75.6081 9.41808C77.317 9.41808 78.5681 9.88835 79.4969 10.8279C80.4267 11.7684 80.8916 13.1854 80.8916 15.0799H80.8906ZM77.8979 15.2394C77.8979 12.9961 77.0665 11.8744 75.4029 11.8744C74.6916 11.8744 74.0871 12.1553 73.5884 12.7162C73.0896 13.277 72.8402 14.1033 72.8402 15.1952C72.8402 17.5301 73.6797 18.697 75.3577 18.697C76.0987 18.697 76.7073 18.3976 77.1835 17.7986C77.6598 17.1997 77.8979 16.3477 77.8979 15.2404V15.2394Z" fill="#5C7DD2"/>
<path d="M86.1063 20.9465H83.2039V4.34795H86.1063V20.9465Z" fill="#5C7DD2"/>
<path d="M98.0354 20.9465H95.2685C95.2685 20.1583 95.3064 19.5223 95.3813 19.0366L95.3588 19.014C95.0868 19.6664 94.625 20.1891 93.9753 20.5833C93.3246 20.9774 92.5846 21.175 91.7533 21.175C90.7557 21.175 89.9696 20.8714 89.3948 20.2653C88.8201 19.6592 88.5327 18.8863 88.5327 17.9458C88.5327 16.642 89.1075 15.6603 90.2559 15.0017C91.4044 14.3421 93.0003 14.0128 95.0406 14.0128V13.6032C95.0406 12.9065 94.8897 12.4023 94.587 12.0915C94.2842 11.7808 93.7628 11.6254 93.0218 11.6254C91.9483 11.6254 90.8142 11.8837 89.6206 12.3982L89.1444 10.1703C90.4294 9.65475 91.8508 9.39749 93.4077 9.39749C95.0858 9.39749 96.2609 9.72679 96.9342 10.3864C97.6064 11.046 97.943 12.0432 97.943 13.3768V18.0384C97.943 19.1446 97.9728 20.115 98.0334 20.9486L98.0354 20.9465ZM95.0416 16.217V15.9217C92.562 15.9217 91.3223 16.4897 91.3223 17.6268C91.3223 18.0055 91.4475 18.3204 91.6969 18.5704C91.9463 18.8205 92.2747 18.946 92.6832 18.946C93.3636 18.946 93.926 18.6692 94.3725 18.1156C94.8179 17.562 95.0416 16.9301 95.0416 16.217Z" fill="#5C7DD2"/>
<path d="M107.288 9.41911L107.151 12.2613C106.108 12.0494 105.325 12.284 104.804 12.9662C104.283 13.6485 104.022 14.7702 104.022 16.3312V20.9465H101.119V9.6455H103.864C103.864 10.3586 103.796 11.116 103.66 11.9197H103.705C104.4 10.1003 105.594 9.26681 107.288 9.41808V9.41911Z" fill="#5C7DD2"/>
<path d="M112.435 6.21259C112.435 6.6983 112.257 7.11095 111.902 7.45156C111.547 7.79218 111.12 7.963 110.621 7.963C110.122 7.963 109.698 7.79218 109.351 7.45156C109.004 7.11095 108.83 6.69727 108.83 6.21259C108.83 5.72791 109.004 5.31114 109.351 4.96229C109.699 4.61345 110.122 4.43954 110.621 4.43954C111.12 4.43954 111.547 4.61036 111.902 4.95097C112.257 5.29159 112.435 5.71247 112.435 6.21259ZM112.072 20.9465H109.17V9.64549H112.072V20.9465Z" fill="#5C7DD2"/>
<path d="M124 20.9465H121.233C121.233 20.1583 121.271 19.5223 121.346 19.0366L121.324 19.014C121.052 19.6664 120.59 20.1891 119.94 20.5833C119.289 20.9774 118.549 21.175 117.718 21.175C116.721 21.175 115.934 20.8714 115.36 20.2653C114.785 19.6592 114.498 18.8863 114.498 17.9458C114.498 16.642 115.072 15.6603 116.221 15.0017C117.369 14.3421 118.965 14.0128 121.005 14.0128V13.6032C121.005 12.9065 120.855 12.4023 120.552 12.0915C120.249 11.7808 119.728 11.6254 118.987 11.6254C117.913 11.6254 116.779 11.8837 115.585 12.3982L115.109 10.1703C116.394 9.65475 117.816 9.39749 119.373 9.39749C121.051 9.39749 122.226 9.72679 122.899 10.3864C123.571 11.046 123.908 12.0432 123.908 13.3768V18.0384C123.908 19.1446 123.938 20.115 123.998 20.9486L124 20.9465ZM121.008 16.217V15.9217C118.528 15.9217 117.288 16.4897 117.288 17.6268C117.288 18.0055 117.413 18.3204 117.663 18.5704C117.912 18.8205 118.241 18.946 118.649 18.946C119.329 18.946 119.892 18.6692 120.338 18.1156C120.784 17.562 121.008 16.9301 121.008 16.217Z" fill="#5C7DD2"/>
</g>
<defs>
<linearGradient id="paint0_linear_1021_2587" x1="21.2697" y1="4.22756" x2="30.3602" y2="15.4288" gradientUnits="userSpaceOnUse">
<stop stop-color="#FBA838"/>
<stop offset="0.19" stop-color="#FAA238"/>
<stop offset="0.44" stop-color="#FA913B"/>
<stop offset="0.73" stop-color="#F97640"/>
<stop offset="1" stop-color="#F95646"/>
</linearGradient>
<clipPath id="clip0_1021_2587">
<rect width="124" height="35" fill="white"/>
</clipPath>
</defs>
</svg>
